# xmcd CD database file
# Copyright (C) 1996 Ti Kan
#
# Track frame offsets:
# 	183
# 	13880
# 	30075
# 	44578
# 	58568
# 	76708
# 	96193
# 	119978
# 	137238
# 	156180
#
# Disc length: 2285 seconds
#
# Revision: 1
# Processed by: cddbd v1.4b41PL1 Copyright (c) Steve Scherf et al.
# Submitted via: DiscPlay 3.4.1
#
DISCID=8008eb0a
DTITLE=Pirates Of The Mississippi - Pirates Of The Mississippi
DYEAR=1900
DGENRE=
TTITLE0=Honky Tonk Blues
TTITLE1=I Take My Comfort In You
TTITLE2=Rollin Home
TTITLE3=Speak Of The Devil
TTITLE4=Feed Jake
TTITLE5=Talkin Bout Love
TTITLE6=Jolly Roger/Pirates Of The Mississippi
TTITLE7=Down And Out In Birmingham
TTITLE8=Anything Goes
TTITLE9=Redneck Rock N' Roll
EXTD=
EXTT0=
EXTT1=
EXTT2=
EXTT3=
EXTT4=
EXTT5=
EXTT6=
EXTT7=
EXTT8=
EXTT9=
PLAYORDER=
